<svg xmlns="http://www.w3.org/2000/svg" viewBox="0 0 400 46.07"><title>logo-kotoba</title><path d="M107.79,3.41a26.38,26.38,0,0,0-24.28,0A22,22,0,0,0,75,11.6a22.47,22.47,0,0,0-3.09,11.66A22.47,22.47,0,0,0,75,34.92a22,22,0,0,0,8.51,8.19,26.38,26.38,0,0,0,24.28,0A21.8,21.8,0,0,0,116.26,35a22.59,22.59,0,0,0,3.06-11.69,22.59,22.59,0,0,0-3.06-11.69A21.8,21.8,0,0,0,107.79,3.41ZM110.69,32a16.44,16.44,0,0,1-6.18,6.15,17.53,17.53,0,0,1-8.83,2.23,17.86,17.86,0,0,1-8.89-2.23A16.31,16.31,0,0,1,80.55,32a17.17,17.17,0,0,1-2.26-8.76,17.17,17.17,0,0,1,2.26-8.76,16.31,16.31,0,0,1,6.24-6.15,17.86,17.86,0,0,1,8.89-2.23,17.53,17.53,0,0,1,8.83,2.23,16.44,16.44,0,0,1,6.18,6.15A17.27,17.27,0,0,1,113,23.26,17.27,17.27,0,0,1,110.69,32Z"/><polygon points="143.97 6.5 159.26 6.5 159.26 45.56 165.57 45.56 165.57 6.5 180.87 6.5 180.87 0.96 143.97 0.96 143.97 6.5"/><path d="M239.34,3.41a26.38,26.38,0,0,0-24.28,0,22,22,0,0,0-8.5,8.19,22.37,22.37,0,0,0-3.09,11.66,22.37,22.37,0,0,0,3.09,11.66,22,22,0,0,0,8.5,8.19,26.38,26.38,0,0,0,24.28,0A21.8,21.8,0,0,0,247.81,35a22.59,22.59,0,0,0,3.06-11.69,22.59,22.59,0,0,0-3.06-11.69A21.8,21.8,0,0,0,239.34,3.41ZM242.24,32a16.44,16.44,0,0,1-6.18,6.15,17.53,17.53,0,0,1-8.83,2.23,17.86,17.86,0,0,1-8.89-2.23A16.31,16.31,0,0,1,212.1,32a17.17,17.17,0,0,1-2.26-8.76,17.17,17.17,0,0,1,2.26-8.76,16.31,16.31,0,0,1,6.24-6.15,17.86,17.86,0,0,1,8.89-2.23,17.53,17.53,0,0,1,8.83,2.23,16.44,16.44,0,0,1,6.18,6.15,17.27,17.27,0,0,1,2.26,8.76A17.27,17.27,0,0,1,242.24,32Z"/><path d="M316.71,22.43a10.52,10.52,0,0,0,4.36-3.89,10.92,10.92,0,0,0,1.63-6A9.92,9.92,0,0,0,318.53,4Q314.35,1,306.71,1h-20v44.6H308q8.34,0,12.71-3.12a10.32,10.32,0,0,0,4.37-8.92,11.28,11.28,0,0,0-2.23-7.17A11.44,11.44,0,0,0,316.71,22.43ZM293.07,6.12h13.06q4.9,0,7.55,1.81a6.06,6.06,0,0,1,2.65,5.33,6,6,0,0,1-2.65,5.32q-2.64,1.82-7.55,1.81H293.07Zm22.81,32.5c-1.83,1.18-4.54,1.78-8.15,1.78H293.07V25.55h14.66q10.89,0,10.89,7.46A6.2,6.2,0,0,1,315.88,38.62Z"/><path d="M379.74,1h-6.31l-20.2,44.6h6.56l4.91-11.15h23.7l4.91,11.15H400ZM366.93,29.31l9.62-21.85,9.62,21.85Z"/><path d="M41.71,0H35.29a24.94,24.94,0,0,1-7.94,18.73,36.61,36.61,0,0,0-14.68-5.54V0H6.25V19.62H0V26H6.25V45.62h6.42V32.43a36.77,36.77,0,0,0,14.68-5.55,25,25,0,0,1,7.94,18.74h6.42a31.64,31.64,0,0,0-9.33-22.81A31.66,31.66,0,0,0,41.71,0Zm-29,18.48a23.26,23.26,0,0,1,9.81,4.31,24.29,24.29,0,0,1-9.81,4.32Z"/></svg>