<?xml version="1.0" encoding="utf-8"?>
<!-- Generator: Adobe Illustrator 23.1.0, SVG Export Plug-In . SVG Version: 6.00 Build 0)  -->
<svg version="1.1" id="Camada_1" xmlns="http://www.w3.org/2000/svg" xmlns:xlink="http://www.w3.org/1999/xlink" x="0px" y="0px"
	 viewBox="0 0 445 85" style="enable-background:new 0 0 445 85;" xml:space="preserve">
<style type="text/css">
	.st0{fill:#FFFFFF;}
</style>
<g>
	<g>
		<path class="st0" d="M178.5,24.4c-12,0-19.6,8.2-19.6,19.1c0,10.7,7.9,19.1,19.6,19.1c11.7,0,19.6-8.4,19.6-19.1
			C198.1,32.7,190.5,24.4,178.5,24.4z M178.5,57.8c-8.5,0-14.3-6.3-14.3-14.3c0-8.1,5.6-14.3,14.3-14.3c8.8,0,14.3,6.2,14.3,14.3
			C192.8,51.5,187,57.8,178.5,57.8z"/>
		<path class="st0" d="M290,24.4c-12,0-19.6,8.2-19.6,19.1c0,10.7,7.9,19.1,19.6,19.1c11.7,0,19.6-8.4,19.6-19.1
			C309.6,32.7,302,24.4,290,24.4z M290,57.8c-8.5,0-14.3-6.3-14.3-14.3c0-8.1,5.6-14.3,14.3-14.3c8.8,0,14.3,6.2,14.3,14.3
			C304.3,51.5,298.5,57.8,290,57.8z"/>
		<polygon class="st0" points="249.9,25 236.7,25 231.4,25 218.2,25 218.2,29.3 231.4,29.3 231.4,62 236.7,62 236.7,29.3 
			249.9,29.3 		"/>
		<path class="st0" d="M370.7,51.7c0-4.7-2.8-7.6-7.7-9c3.7-2,5.6-5,5.6-8.3c0-6.4-5.6-9.4-10.8-9.4l-19.4,0v37l19.4,0
			C363.7,62,370.7,59.6,370.7,51.7z M356.8,29.3c3.3,0,6.6,1.8,6.6,6c0,4.6-4,6-8.3,6l-11.3,0v-12H356.8z M356.6,57.7l-12.9,0V45.5
			l12.9,0c3.6,0,8.9,0.7,8.9,6.1C365.5,56.8,360.7,57.7,356.6,57.7z"/>
		<path class="st0" d="M429.9,61.9h5.3L417.7,25h-5.3l-17.5,36.9h5.3l3.5-7.4h22.7L429.9,61.9z M405.7,50.2l9.3-19.6l9.3,19.6H405.7
			z"/>
		<path class="st0" d="M134.1,62h5.3c0-7.7-2.8-14.1-7.1-18.7c4.7-5,7-11.6,7-18.3h-5.3c0,5.8-2.1,11-5.4,14.9
			c-4.1-3.2-9.1-5.1-14.3-5.8V25h-5.3v15.6H104v5.3h5.1V62h5.3V51.8c5.6-0.6,10.2-2.4,14-5.1C132.2,51.3,134.1,57.1,134.1,62z
			 M114.4,38.5c4.2,0.7,7.8,2.5,10.7,4.9c-3.1,2.3-6.7,3.9-10.7,4.6V38.5z"/>
	</g>
	<g>
		<path class="st0" d="M10,10v64.8h64.8V10H10z M71.4,71.4h-58v-58h58V71.4z"/>
		<path class="st0" d="M53.8,60.9h5.3c0-7.7-2.8-14.1-7.1-18.7c4.7-5,7-11.6,7-18.3h-5.3c0,5.8-2.1,11-5.4,14.9
			c-4.1-3.2-9.1-5.1-14.3-5.8v-9.1h-5.3v15.6h-5.1v5.3h5.1v16.2h5.3V50.8c5.6-0.6,10.2-2.4,14-5.1C51.9,50.3,53.8,56,53.8,60.9z
			 M34.1,37.4c4.2,0.7,7.8,2.5,10.7,4.9c-3.1,2.3-6.7,3.9-10.7,4.6V37.4z"/>
	</g>
</g>
</svg>
